<?xml version="1.0" encoding="UTF-8" standalone="no"?>
<!-- Created with Inkscape (http://www.inkscape.org/) -->

<svg
   xmlns:dc="http://purl.org/dc/elements/1.1/"
   xmlns:cc="http://creativecommons.org/ns#"
   xmlns:rdf="http://www.w3.org/1999/02/22-rdf-syntax-ns#"
   xmlns:svg="http://www.w3.org/2000/svg"
   xmlns="http://www.w3.org/2000/svg"
   xmlns:sodipodi="http://sodipodi.sourceforge.net/DTD/sodipodi-0.dtd"
   xmlns:inkscape="http://www.inkscape.org/namespaces/inkscape"
   width="56.703419mm"
   height="26.631193mm"
   viewBox="0 0 56.703419 26.631193"
   version="1.1"
   id="svg995"
   inkscape:version="0.92.5 (2060ec1f9f, 2020-04-08)"
   sodipodi:docname="logoBlack.svg">
  <defs
     id="defs989" />
  <sodipodi:namedview
     id="base"
     pagecolor="#ffffff"
     bordercolor="#666666"
     borderopacity="1.0"
     inkscape:pageopacity="0.0"
     inkscape:pageshadow="2"
     inkscape:zoom="1.979899"
     inkscape:cx="158.58724"
     inkscape:cy="50.921232"
     inkscape:document-units="mm"
     inkscape:current-layer="layer1"
     showgrid="false"
     inkscape:window-width="1366"
     inkscape:window-height="705"
     inkscape:window-x="-8"
     inkscape:window-y="-8"
     inkscape:window-maximized="1" />
  <metadata
     id="metadata992">
    <rdf:RDF>
      <cc:Work
         rdf:about="">
        <dc:format>image/svg+xml</dc:format>
        <dc:type
           rdf:resource="http://purl.org/dc/dcmitype/StillImage" />
        <dc:title />
      </cc:Work>
    </rdf:RDF>
  </metadata>
  <g
     inkscape:label="Camada 1"
     inkscape:groupmode="layer"
     id="layer1"
     transform="translate(-47.99948,-95.452261)">
    <g
       id="g302"
       transform="matrix(0.35277777,0,0,-0.35277777,56.881335,99.344105)"
       inkscape:export-xdpi="200"
       inkscape:export-ydpi="200">
      <path
         d="m 0,0 c -2.837,0.027 -5.883,-2 -5.19,-4.73 0.124,-0.477 0.859,-1.469 1.794,-1.707 C 1.992,-7.82 6.16,-0.066 0,0 m 2.544,-37.429 c -2.827,-5.147 -13.036,-7.084 -22.612,-6.952 1.362,6.176 6.242,17.165 5.88,17.198 7.176,-0.25 20.724,-2.989 16.732,-10.246 m -6.433,25.998 c 3.599,-0.776 7.157,-1.723 8.076,-3.895 2.508,-5.92 -8.843,-8.021 -16.022,-7.647 2.309,4.126 4.58,8.283 7.946,11.542 m -2.537,-12.175 c 7.527,0.799 17.655,2.136 17.012,8.461 -0.517,5.134 -10.612,7.915 -19.927,7.989 5.45,9.255 13.083,16.725 28.853,17.543 -0.224,0.409 -1.686,0.01 -1.87,0.446 l -3.775,0.199 C -6.002,10.482 -14.1,-3.726 -19.121,-17.56 c -5.08,-13.997 -7.774,-31.92 -4.85,-46.898 0.857,6.874 1.789,13.688 3.649,19.743 10.864,-0.379 21.311,1.017 26.776,5.172 1.696,1.289 3.49,3.317 3.608,5.528 0.345,6.512 -8.561,8.724 -16.488,10.409"
         style="fill:#131112;fill-opacity:1;fill-rule:nonzero;stroke:none"
         id="path304"
         inkscape:connector-curvature="0" />
    </g>
    <g
       id="g306"
       transform="matrix(0.35277777,0,0,-0.35277777,67.729921,106.79964)"
       inkscape:export-xdpi="200"
       inkscape:export-ydpi="200">
      <path
         d="M 0,0 2.08,11.641 H 2.019 L -4.485,0 H -6.239 L -8.583,11.641 H -8.624 L -10.683,0 h -2.386 l 2.55,14.435 h 3.914 L -4.648,4.098 h 0.041 L 1.041,14.435 H 5.016 L 2.488,0 Z"
         style="fill:#131112;fill-opacity:1;fill-rule:nonzero;stroke:none"
         id="path308"
         inkscape:connector-curvature="0" />
    </g>
    <g
       id="g310"
       transform="matrix(0.35277777,0,0,-0.35277777,69.304864,106.79964)"
       inkscape:export-xdpi="200"
       inkscape:export-ydpi="200">
      <path
         d="m 0,0 2.549,14.435 h 9.094 L 11.255,12.232 H 4.608 L 3.956,8.501 h 6.34 L 9.909,6.381 H 3.589 L 2.854,2.243 h 7.219 L 9.685,0 Z"
         style="fill:#131112;fill-opacity:1;fill-rule:nonzero;stroke:none"
         id="path312"
         inkscape:connector-curvature="0" />
    </g>
    <g
       id="g314"
       transform="matrix(0.35277777,0,0,-0.35277777,76.058615,102.48432)"
       inkscape:export-xdpi="200"
       inkscape:export-ydpi="200">
      <path
         d="M 0,0 -2.161,-12.232 H -4.668 L -2.528,0 h -4.281 l 0.387,2.202 H 4.628 L 4.241,0 Z"
         style="fill:#131112;fill-opacity:1;fill-rule:nonzero;stroke:none"
         id="path316"
         inkscape:connector-curvature="0" />
    </g>
    <g
       id="g318"
       transform="matrix(0.35277777,0,0,-0.35277777,79.309569,106.15233)"
       inkscape:export-xdpi="200"
       inkscape:export-ydpi="200">
      <path
         d="m 0,0 c 0.91,0 1.715,0.184 2.417,0.551 0.699,0.366 1.29,0.856 1.773,1.468 0.481,0.61 0.849,1.304 1.101,2.079 0.251,0.775 0.377,1.569 0.377,2.385 0,0.584 -0.096,1.142 -0.286,1.672 C 5.192,8.685 4.914,9.144 4.546,9.531 4.18,9.918 3.724,10.228 3.18,10.458 2.636,10.69 2.011,10.805 1.305,10.805 c -0.87,0 -1.656,-0.183 -2.355,-0.55 C -1.75,9.888 -2.344,9.398 -2.834,8.787 -3.324,8.175 -3.701,7.482 -3.966,6.708 -4.23,5.933 -4.363,5.138 -4.363,4.322 -4.363,3.724 -4.269,3.164 -4.078,2.64 -3.887,2.117 -3.609,1.662 -3.241,1.274 -2.875,0.887 -2.42,0.577 -1.876,0.347 -1.333,0.115 -0.708,0 0,0 M 1.427,12.966 C 2.46,12.966 3.395,12.82 4.23,12.528 5.066,12.236 5.783,11.821 6.381,11.284 6.979,10.747 7.442,10.091 7.767,9.317 8.094,8.542 8.256,7.672 8.256,6.708 8.256,5.484 8.05,4.329 7.635,3.241 7.221,2.154 6.646,1.209 5.912,0.408 5.179,-0.395 4.309,-1.029 3.303,-1.499 2.296,-1.968 1.196,-2.202 0,-2.202 c -1.061,0 -2.019,0.142 -2.875,0.429 -0.856,0.285 -1.587,0.699 -2.192,1.243 -0.605,0.544 -1.07,1.202 -1.396,1.977 -0.326,0.776 -0.49,1.645 -0.49,2.61 0,1.223 0.215,2.378 0.643,3.465 0.428,1.088 1.015,2.032 1.763,2.834 0.748,0.802 1.631,1.438 2.651,1.907 1.019,0.469 2.126,0.703 3.323,0.703"
         style="fill:#131112;fill-opacity:1;fill-rule:nonzero;stroke:none"
         id="path320"
         inkscape:connector-curvature="0" />
    </g>
    <g
       id="g322"
       transform="matrix(0.35277777,0,0,-0.35277777,83.236303,106.02296)"
       inkscape:export-xdpi="200"
       inkscape:export-ydpi="200">
      <path
         d="M 0,0 H 2.631 C 3.636,0 4.519,0.163 5.282,0.488 6.042,0.814 6.677,1.251 7.187,1.8 7.696,2.35 8.08,2.974 8.339,3.672 8.597,4.371 8.727,5.1 8.727,5.86 8.727,6.43 8.631,6.972 8.441,7.488 8.251,8.003 7.961,8.451 7.575,8.831 7.187,9.21 6.698,9.512 6.106,9.736 5.516,9.959 4.812,10.072 3.997,10.072 H 1.774 Z m -0.325,12.233 h 4.933 c 0.816,0 1.624,-0.113 2.426,-0.337 0.802,-0.224 1.522,-0.577 2.162,-1.06 C 9.834,10.354 10.35,9.728 10.744,8.96 11.139,8.193 11.336,7.271 11.336,6.198 11.336,4.934 11.115,3.786 10.674,2.752 10.231,1.719 9.617,0.836 8.828,0.102 8.04,-0.632 7.109,-1.2 6.036,-1.6 4.962,-2.001 3.793,-2.202 2.528,-2.202 h -5.403 z"
         style="fill:#131112;fill-opacity:1;fill-rule:nonzero;stroke:none"
         id="path324"
         inkscape:connector-curvature="0" />
    </g>
    <g
       id="g326"
       transform="matrix(0.35277777,0,0,-0.35277777,89.853109,106.15233)"
       inkscape:export-xdpi="200"
       inkscape:export-ydpi="200">
      <path
         d="m 0,0 c 0.911,0 1.715,0.184 2.417,0.551 0.699,0.366 1.29,0.856 1.773,1.468 0.481,0.61 0.849,1.304 1.101,2.079 0.251,0.775 0.377,1.569 0.377,2.385 0,0.584 -0.096,1.142 -0.286,1.672 C 5.192,8.685 4.914,9.144 4.546,9.531 4.18,9.918 3.724,10.228 3.18,10.458 2.636,10.69 2.011,10.805 1.305,10.805 0.435,10.805 -0.35,10.622 -1.05,10.255 -1.75,9.888 -2.344,9.398 -2.834,8.787 -3.324,8.175 -3.701,7.482 -3.966,6.708 -4.23,5.933 -4.363,5.138 -4.363,4.322 -4.363,3.724 -4.269,3.164 -4.078,2.64 -3.887,2.117 -3.609,1.662 -3.241,1.274 -2.875,0.887 -2.42,0.577 -1.876,0.347 -1.333,0.115 -0.708,0 0,0 M 1.428,12.966 C 2.46,12.966 3.395,12.82 4.23,12.528 5.066,12.236 5.783,11.821 6.381,11.284 6.979,10.747 7.442,10.091 7.767,9.317 8.094,8.542 8.256,7.672 8.256,6.708 8.256,5.484 8.05,4.329 7.635,3.241 7.221,2.154 6.646,1.209 5.912,0.408 5.179,-0.395 4.309,-1.029 3.303,-1.499 2.296,-1.968 1.196,-2.202 0,-2.202 c -1.061,0 -2.019,0.142 -2.875,0.429 -0.856,0.285 -1.587,0.699 -2.192,1.243 -0.605,0.544 -1.07,1.202 -1.396,1.977 -0.326,0.776 -0.49,1.645 -0.49,2.61 0,1.223 0.215,2.378 0.643,3.465 0.428,1.088 1.016,2.032 1.763,2.834 0.748,0.802 1.631,1.438 2.651,1.907 1.019,0.469 2.127,0.703 3.324,0.703"
         style="fill:#131112;fill-opacity:1;fill-rule:nonzero;stroke:none"
         id="path328"
         inkscape:connector-curvature="0" />
    </g>
    <g
       id="g330"
       transform="matrix(0.35277777,0,0,-0.35277777,103.19407,110.89465)"
       inkscape:export-xdpi="200"
       inkscape:export-ydpi="200">
      <path
         d="m 0,0 c -0.241,-0.732 -0.587,-1.381 -1.041,-1.946 -0.452,-0.565 -1.006,-1.018 -1.662,-1.357 -0.656,-0.34 -1.399,-0.509 -2.228,-0.509 -0.665,0 -1.249,0.105 -1.754,0.316 -0.505,0.212 -0.931,0.498 -1.278,0.86 -0.348,0.362 -0.612,0.788 -0.791,1.278 -0.182,0.49 -0.272,1.014 -0.272,1.573 0,0.768 0.124,1.515 0.373,2.239 0.249,0.725 0.602,1.369 1.063,1.935 0.46,0.566 1.019,1.021 1.674,1.368 0.656,0.347 1.392,0.521 2.206,0.521 0.649,0 1.229,-0.106 1.742,-0.317 C -1.455,5.75 -1.029,5.463 -0.689,5.102 -0.351,4.74 -0.09,4.313 0.091,3.823 0.272,3.333 0.363,2.809 0.363,2.251 0.363,1.481 0.241,0.731 0,0 m -17.012,-0.045 c -0.241,-0.672 -0.599,-1.267 -1.075,-1.788 -0.475,-0.52 -1.071,-0.935 -1.788,-1.244 -0.715,-0.309 -1.542,-0.464 -2.477,-0.464 h -2.42 l 1.674,9.57 h 2.059 c 0.754,0 1.406,-0.106 1.956,-0.317 0.551,-0.211 1.008,-0.498 1.37,-0.859 0.361,-0.362 0.629,-0.789 0.802,-1.279 0.174,-0.49 0.26,-1.007 0.26,-1.55 0,-0.709 -0.12,-1.398 -0.361,-2.069 m -20.746,-0.532 3.348,5.679 0.837,-5.679 z m -9.298,3.436 C -47.615,2.529 -48.4,2.364 -49.41,2.364 h -1.674 l 0.679,3.779 h 1.607 c 0.783,0 1.41,-0.121 1.878,-0.361 0.466,-0.24 0.701,-0.69 0.701,-1.349 0,-0.72 -0.281,-1.245 -0.837,-1.574 M 3.745,5.463 C 3.391,6.338 2.881,7.084 2.218,7.703 1.554,8.321 0.744,8.796 -0.214,9.128 -1.173,9.46 -2.255,9.626 -3.461,9.626 c -1.387,0 -2.659,-0.252 -3.811,-0.757 -1.155,-0.506 -2.154,-1.2 -2.999,-2.082 -0.845,-0.882 -1.5,-1.916 -1.968,-3.099 -0.234,-0.591 -0.409,-1.204 -0.526,-1.838 0.012,0.208 0.029,0.413 0.029,0.627 0,1.207 -0.227,2.236 -0.679,3.088 -0.453,0.852 -1.037,1.55 -1.754,2.093 -0.715,0.543 -1.523,0.939 -2.42,1.188 -0.898,0.248 -1.799,0.373 -2.704,0.373 h -5.927 l -2.653,-15.031 -2.845,15.031 h -3.665 l -8.774,-13.773 -2.198,4.656 c 1.206,0.301 2.164,0.863 2.873,1.685 0.709,0.822 1.064,1.881 1.064,3.179 0,1.342 -0.495,2.387 -1.482,3.133 -0.989,0.747 -2.365,1.12 -4.129,1.12 h -5.475 l -2.828,-16.018 h 3.665 l 1.086,6.448 h 1.538 l 2.692,-6.448 h 6.062 l 1.924,3.19 h 6.177 l 0.542,-3.19 h 10.137 c 1.402,0 2.698,0.219 3.89,0.656 1.191,0.438 2.225,1.06 3.1,1.867 0.874,0.806 1.558,1.783 2.048,2.929 0.252,0.591 0.437,1.217 0.559,1.875 -0.012,-0.216 -0.028,-0.431 -0.028,-0.653 0,-1.071 0.177,-2.044 0.531,-2.918 0.355,-0.875 0.868,-1.622 1.538,-2.24 0.672,-0.619 1.49,-1.094 2.455,-1.425 0.965,-0.332 2.059,-0.498 3.281,-0.498 1.387,0 2.657,0.253 3.812,0.758 1.154,0.505 2.145,1.199 2.976,2.081 0.828,0.883 1.473,1.915 1.933,3.099 0.46,1.185 0.691,2.455 0.691,3.813 0,1.071 -0.177,2.043 -0.532,2.918 m -66.254,-2.828 -0.565,-3.099 h 3.121 l -0.52,-3.009 c -0.332,-0.166 -0.69,-0.282 -1.074,-0.351 -0.385,-0.068 -0.804,-0.11 -1.257,-0.124 -0.678,0 -1.281,0.102 -1.809,0.305 -0.528,0.204 -0.973,0.491 -1.334,0.86 -0.363,0.369 -0.635,0.806 -0.815,1.312 -0.181,0.506 -0.272,1.052 -0.272,1.64 0,0.83 0.139,1.618 0.419,2.365 0.279,0.746 0.663,1.402 1.154,1.968 0.489,0.566 1.07,1.014 1.742,1.346 0.67,0.332 1.398,0.498 2.183,0.498 0.8,0 1.459,-0.148 1.979,-0.441 0.521,-0.294 0.932,-0.66 1.234,-1.098 l 2.738,2.466 c -0.59,0.785 -1.4,1.376 -2.433,1.776 -1.034,0.4 -2.183,0.6 -3.45,0.6 -1.358,0 -2.614,-0.257 -3.768,-0.769 -1.153,-0.513 -2.156,-1.218 -3.008,-2.116 -0.853,-0.897 -1.516,-1.949 -1.991,-3.156 -0.475,-1.207 -0.713,-2.496 -0.713,-3.869 0,-1.071 0.184,-2.036 0.554,-2.895 0.37,-0.86 0.887,-1.592 1.551,-2.195 0.663,-0.604 1.466,-1.067 2.409,-1.391 0.942,-0.324 1.987,-0.487 3.133,-0.487 1.087,0 2.138,0.128 3.156,0.385 1.019,0.257 1.934,0.595 2.749,1.018 l 1.471,8.461 z m -9.321,-2.76 0.542,3.032 h -6.334 l 0.542,3.099 h 6.652 l 0.566,3.213 H -80.11 l -2.828,-16.018 h 10.904 l 0.565,3.236 h -7.284 l 0.588,3.438 z m -9.026,9.344 h -12.625 l -0.588,-3.235 h 4.479 l -2.239,-12.783 h 3.756 l 2.261,12.783 h 4.391 z M -99.997,-1.347 h -0.045 l -4.389,10.566 h -4.23 l -2.828,-16.018 h 3.711 l 1.809,10.633 h 0.069 l 4.411,-10.633 h 4.186 l 2.828,16.018 h -3.712 z m -13.98,10.566 -2.828,-16.018 h 3.779 l 2.827,16.018 z"
         style="fill:#131112;fill-opacity:1;fill-rule:nonzero;stroke:none"
         id="path332"
         inkscape:connector-curvature="0" />
    </g>
    <g
       id="g334"
       transform="matrix(0.35277777,0,0,-0.35277777,72.922388,100.63809)"
       inkscape:export-xdpi="200"
       inkscape:export-ydpi="200">
      <path
         d="M 0,0 -0.68,-1.849 H -5.443 Z"
         style="fill:#131112;fill-opacity:1;fill-rule:nonzero;stroke:none"
         id="path336"
         inkscape:connector-curvature="0" />
    </g>
    <g
       id="g338"
       transform="matrix(0.35277777,0,0,-0.35277777,93.3225,101.92086)"
       inkscape:export-xdpi="200"
       inkscape:export-ydpi="200">
      <path
         d="M 0,0 H 4.549 L 8.232,-6.142 4.116,-13.16 H 0 l 4.116,6.58 z"
         style="fill:#131112;fill-opacity:1;fill-rule:nonzero;stroke:none"
         id="path340"
         inkscape:connector-curvature="0" />
    </g>
    <g
       id="g342"
       transform="matrix(0.35277777,0,0,-0.35277777,95.385933,101.92086)"
       inkscape:export-xdpi="200"
       inkscape:export-ydpi="200">
      <path
         d="M 0,0 H 4.549 L 8.232,-6.142 4.116,-13.16 H 0 l 4.116,6.58 z"
         style="fill:#131112;fill-opacity:1;fill-rule:nonzero;stroke:none"
         id="path344"
         inkscape:connector-curvature="0" />
    </g>
    <g
       id="g346"
       transform="matrix(0.35277777,0,0,-0.35277777,97.449365,101.92086)"
       inkscape:export-xdpi="200"
       inkscape:export-ydpi="200">
      <path
         d="M 0,0 H 4.549 L 8.232,-6.142 4.116,-13.16 H 0 l 4.116,6.58 z"
         style="fill:#131112;fill-opacity:1;fill-rule:nonzero;stroke:none"
         id="path348"
         inkscape:connector-curvature="0" />
    </g>
    <g
       id="g350"
       transform="matrix(0.35277777,0,0,-0.35277777,99.512657,101.92086)"
       inkscape:export-xdpi="200"
       inkscape:export-ydpi="200">
      <path
         d="M 0,0 H 4.549 L 8.232,-6.142 4.116,-13.16 H 0 l 4.116,6.58 z"
         style="fill:#131112;fill-opacity:1;fill-rule:nonzero;stroke:none"
         id="path352"
         inkscape:connector-curvature="0" />
    </g>
    <g
       id="g354"
       transform="matrix(0.35277777,0,0,-0.35277777,101.57609,101.92086)"
       inkscape:export-xdpi="200"
       inkscape:export-ydpi="200">
      <path
         d="M 0,0 H 4.549 L 8.232,-6.142 4.116,-13.16 H 0 l 4.116,6.58 z"
         style="fill:#131112;fill-opacity:1;fill-rule:nonzero;stroke:none"
         id="path356"
         inkscape:connector-curvature="0" />
    </g>
    <g
       id="g358"
       transform="matrix(0.35277777,0,0,-0.35277777,62.368512,115.663)"
       inkscape:export-xdpi="200"
       inkscape:export-ydpi="200">
      <path
         d="m 0,0 h 0.538 c 0.076,0 0.16,0.005 0.248,0.017 0.089,0.011 0.171,0.034 0.246,0.069 0.074,0.034 0.136,0.085 0.185,0.152 0.05,0.067 0.074,0.156 0.074,0.267 0,0.178 -0.06,0.302 -0.181,0.371 C 0.99,0.947 0.808,0.981 0.563,0.981 H 0 Z m 0,1.496 h 0.534 c 0.199,0 0.353,0.04 0.457,0.119 0.106,0.08 0.157,0.192 0.157,0.339 0,0.152 -0.054,0.26 -0.161,0.324 C 0.879,2.341 0.709,2.373 0.481,2.373 H 0 Z M -0.601,2.869 H 0.715 C 0.842,2.869 0.967,2.854 1.091,2.823 1.216,2.793 1.325,2.744 1.423,2.676 1.52,2.607 1.598,2.52 1.658,2.411 1.719,2.303 1.75,2.173 1.75,2.021 1.75,1.83 1.695,1.672 1.587,1.548 1.479,1.425 1.337,1.336 1.163,1.282 V 1.272 C 1.375,1.244 1.55,1.161 1.687,1.024 1.823,0.888 1.892,0.705 1.892,0.476 1.892,0.292 1.855,0.137 1.782,0.012 1.71,-0.114 1.613,-0.215 1.495,-0.291 1.375,-0.367 1.238,-0.422 1.083,-0.455 0.93,-0.489 0.773,-0.505 0.614,-0.505 h -1.215 z"
         style="fill:#131112;fill-opacity:1;fill-rule:nonzero;stroke:none"
         id="path360"
         inkscape:connector-curvature="0" />
    </g>
    <g
       id="g362"
       transform="matrix(0.35277777,0,0,-0.35277777,66.218375,115.16382)"
       inkscape:export-xdpi="200"
       inkscape:export-ydpi="200">
      <path
         d="M 0,0 C 0.086,0 0.171,0.006 0.257,0.019 0.343,0.032 0.42,0.056 0.489,0.09 0.557,0.125 0.613,0.176 0.658,0.241 0.703,0.306 0.725,0.389 0.725,0.491 0.725,0.583 0.704,0.659 0.663,0.717 0.622,0.776 0.569,0.823 0.506,0.858 0.442,0.893 0.37,0.917 0.289,0.929 0.207,0.942 0.129,0.949 0.053,0.949 H -0.49 V 0 Z M -1.091,1.454 H 0.082 C 0.24,1.454 0.395,1.437 0.544,1.404 0.693,1.37 0.826,1.316 0.942,1.239 1.058,1.163 1.15,1.063 1.221,0.939 1.291,0.815 1.325,0.665 1.325,0.486 1.325,0.242 1.256,0.042 1.118,-0.112 0.98,-0.266 0.791,-0.37 0.553,-0.424 L 1.455,-1.92 H 0.729 l -0.781,1.429 H -0.49 V -1.92 h -0.601 z"
         style="fill:#131112;fill-opacity:1;fill-rule:nonzero;stroke:none"
         id="path364"
         inkscape:connector-curvature="0" />
    </g>
    <g
       id="g366"
       transform="matrix(0.35277777,0,0,-0.35277777,70.42846,115.4041)"
       inkscape:export-xdpi="200"
       inkscape:export-ydpi="200">
      <path
         d="m 0,0 c 0,-0.204 -0.036,-0.387 -0.106,-0.551 -0.069,-0.163 -0.165,-0.303 -0.285,-0.417 -0.121,-0.114 -0.265,-0.202 -0.43,-0.264 -0.165,-0.062 -0.345,-0.093 -0.537,-0.093 -0.195,0 -0.374,0.031 -0.539,0.093 -0.166,0.062 -0.31,0.15 -0.431,0.264 -0.123,0.114 -0.218,0.254 -0.287,0.417 -0.067,0.164 -0.101,0.347 -0.101,0.551 v 2.135 h 0.599 V 0.024 c 0,-0.099 0.013,-0.196 0.038,-0.294 0.026,-0.097 0.068,-0.183 0.127,-0.259 0.058,-0.076 0.137,-0.138 0.233,-0.186 0.098,-0.048 0.218,-0.072 0.361,-0.072 0.142,0 0.262,0.024 0.359,0.072 0.097,0.048 0.174,0.11 0.234,0.186 0.058,0.076 0.1,0.162 0.125,0.259 0.027,0.098 0.038,0.195 0.038,0.294 V 2.135 H 0 Z"
         style="fill:#131112;fill-opacity:1;fill-rule:nonzero;stroke:none"
         id="path368"
         inkscape:connector-curvature="0" />
    </g>
    <g
       id="g370"
       transform="matrix(0.35277777,0,0,-0.35277777,73.269132,114.65085)"
       inkscape:export-xdpi="200"
       inkscape:export-ydpi="200">
      <path
         d="M 0,0 H 0.797 L 2.365,-2.526 H 2.374 V 0 h 0.6 V -3.375 H 2.211 L 0.61,-0.768 H 0.601 V -3.375 H 0 Z"
         style="fill:#131112;fill-opacity:1;fill-rule:nonzero;stroke:none"
         id="path372"
         inkscape:connector-curvature="0" />
    </g>
    <g
       id="g374"
       transform="matrix(0.35277777,0,0,-0.35277777,77.811993,115.38741)"
       inkscape:export-xdpi="200"
       inkscape:export-ydpi="200">
      <path
         d="M 0,0 -0.52,1.373 -1.048,0 Z m -0.762,2.088 h 0.519 L 1.211,-1.287 H 0.524 L 0.21,-0.514 H -1.252 L -1.558,-1.287 H -2.23 Z"
         style="fill:#131112;fill-opacity:1;fill-rule:nonzero;stroke:none"
         id="path376"
         inkscape:connector-curvature="0" />
    </g>
    <g
       id="g378"
       transform="matrix(0.35277777,0,0,-0.35277777,84.136487,115.663)"
       inkscape:export-xdpi="200"
       inkscape:export-ydpi="200">
      <path
         d="m 0,0 h 0.538 c 0.077,0 0.16,0.005 0.248,0.017 0.089,0.011 0.171,0.034 0.246,0.069 0.074,0.034 0.136,0.085 0.185,0.152 0.05,0.067 0.074,0.156 0.074,0.267 0,0.178 -0.06,0.302 -0.181,0.371 C 0.99,0.947 0.808,0.981 0.563,0.981 H 0 Z m 0,1.496 h 0.534 c 0.199,0 0.353,0.04 0.457,0.119 0.106,0.08 0.157,0.192 0.157,0.339 0,0.152 -0.054,0.26 -0.161,0.324 C 0.879,2.341 0.709,2.373 0.481,2.373 H 0 Z M -0.601,2.869 H 0.715 C 0.842,2.869 0.967,2.854 1.091,2.823 1.216,2.793 1.325,2.744 1.423,2.676 1.52,2.607 1.598,2.52 1.658,2.411 1.719,2.303 1.75,2.173 1.75,2.021 1.75,1.83 1.695,1.672 1.587,1.548 1.479,1.425 1.337,1.336 1.163,1.282 V 1.272 C 1.375,1.244 1.55,1.161 1.687,1.024 1.823,0.888 1.892,0.705 1.892,0.476 1.892,0.292 1.855,0.137 1.783,0.012 1.71,-0.114 1.613,-0.215 1.495,-0.291 1.375,-0.367 1.238,-0.422 1.083,-0.455 0.93,-0.489 0.773,-0.505 0.615,-0.505 h -1.216 z"
         style="fill:#131112;fill-opacity:1;fill-rule:nonzero;stroke:none"
         id="path380"
         inkscape:connector-curvature="0" />
    </g>
    <g
       id="g382"
       transform="matrix(0.35277777,0,0,-0.35277777,87.774682,115.24288)"
       inkscape:export-xdpi="200"
       inkscape:export-ydpi="200">
      <path
         d="m 0,0 c 0,-0.181 0.028,-0.347 0.083,-0.498 0.056,-0.15 0.135,-0.281 0.238,-0.393 0.103,-0.111 0.226,-0.197 0.367,-0.259 0.142,-0.063 0.299,-0.094 0.47,-0.094 0.171,0 0.328,0.031 0.472,0.094 0.143,0.062 0.266,0.148 0.369,0.259 0.103,0.112 0.183,0.243 0.238,0.393 C 2.294,-0.347 2.321,-0.181 2.321,0 2.321,0.175 2.294,0.337 2.237,0.486 2.182,0.636 2.104,0.766 2.002,0.877 1.9,0.988 1.777,1.076 1.634,1.14 1.492,1.203 1.333,1.235 1.158,1.235 0.983,1.235 0.825,1.203 0.685,1.14 0.542,1.076 0.422,0.988 0.32,0.877 0.218,0.766 0.139,0.636 0.083,0.486 0.028,0.337 0,0.175 0,0 m -0.652,0 c 0,0.271 0.045,0.514 0.135,0.732 0.09,0.217 0.216,0.402 0.376,0.555 C 0.02,1.439 0.21,1.557 0.431,1.64 0.651,1.722 0.894,1.764 1.154,1.764 1.417,1.764 1.66,1.722 1.883,1.64 2.105,1.557 2.298,1.439 2.459,1.287 2.622,1.134 2.747,0.949 2.838,0.732 2.928,0.514 2.974,0.271 2.974,0 2.974,-0.264 2.928,-0.504 2.838,-0.722 2.747,-0.939 2.622,-1.127 2.459,-1.284 2.298,-1.441 2.105,-1.563 1.883,-1.651 1.66,-1.738 1.417,-1.782 1.154,-1.782 c -0.26,0 -0.503,0.044 -0.723,0.131 -0.221,0.088 -0.411,0.21 -0.572,0.367 -0.16,0.157 -0.286,0.345 -0.376,0.562 -0.09,0.218 -0.135,0.458 -0.135,0.722"
         style="fill:#131112;fill-opacity:1;fill-rule:nonzero;stroke:none"
         id="path384"
         inkscape:connector-curvature="0" />
    </g>
    <g
       id="g386"
       transform="matrix(0.35277777,0,0,-0.35277777,92.003042,115.16382)"
       inkscape:export-xdpi="200"
       inkscape:export-ydpi="200">
      <path
         d="M 0,0 C 0.086,0 0.172,0.006 0.257,0.019 0.343,0.032 0.42,0.056 0.489,0.09 0.558,0.125 0.613,0.176 0.658,0.241 0.703,0.306 0.725,0.389 0.725,0.491 0.725,0.583 0.704,0.659 0.663,0.717 0.622,0.776 0.569,0.823 0.506,0.858 0.442,0.893 0.37,0.917 0.289,0.929 0.208,0.942 0.129,0.949 0.053,0.949 H -0.49 V 0 Z M -1.091,1.454 H 0.082 C 0.24,1.454 0.395,1.437 0.544,1.404 0.693,1.37 0.826,1.316 0.942,1.239 1.058,1.163 1.151,1.063 1.221,0.939 1.291,0.815 1.325,0.665 1.325,0.486 1.325,0.242 1.256,0.042 1.118,-0.112 0.98,-0.266 0.792,-0.37 0.554,-0.424 L 1.455,-1.92 H 0.729 l -0.781,1.429 H -0.49 V -1.92 h -0.601 z"
         style="fill:#131112;fill-opacity:1;fill-rule:nonzero;stroke:none"
         id="path388"
         inkscape:connector-curvature="0" />
    </g>
    <g
       id="g390"
       transform="matrix(0.35277777,0,0,-0.35277777,96.307177,115.7791)"
       inkscape:export-xdpi="200"
       inkscape:export-ydpi="200">
      <path
         d="m 0,0 c -0.171,-0.083 -0.36,-0.147 -0.565,-0.193 -0.205,-0.046 -0.44,-0.069 -0.707,-0.069 -0.273,0 -0.523,0.044 -0.749,0.131 -0.225,0.088 -0.419,0.21 -0.582,0.367 -0.161,0.157 -0.288,0.345 -0.377,0.562 -0.092,0.218 -0.137,0.458 -0.137,0.722 0,0.271 0.047,0.514 0.14,0.732 0.094,0.217 0.223,0.402 0.386,0.555 0.164,0.152 0.357,0.27 0.58,0.353 0.222,0.082 0.464,0.124 0.724,0.124 0.27,0 0.517,-0.039 0.742,-0.117 0.223,-0.078 0.404,-0.18 0.54,-0.307 L -0.42,2.411 C -0.506,2.507 -0.625,2.587 -0.779,2.654 -0.934,2.721 -1.101,2.755 -1.283,2.755 -1.46,2.755 -1.621,2.723 -1.766,2.66 -1.91,2.596 -2.033,2.508 -2.135,2.397 -2.237,2.286 -2.316,2.156 -2.372,2.006 -2.427,1.857 -2.455,1.695 -2.455,1.52 c 0,-0.181 0.028,-0.347 0.083,-0.498 0.056,-0.15 0.135,-0.281 0.24,-0.393 0.103,-0.111 0.228,-0.197 0.376,-0.259 0.147,-0.063 0.315,-0.094 0.503,-0.094 0.257,0 0.48,0.04 0.672,0.12 V 1.253 H -1.292 V 1.75 H 0 Z"
         style="fill:#131112;fill-opacity:1;fill-rule:nonzero;stroke:none"
         id="path392"
         inkscape:connector-curvature="0" />
    </g>
    <g
       id="g394"
       transform="matrix(0.35277777,0,0,-0.35277777,99.152964,114.65085)"
       inkscape:export-xdpi="200"
       inkscape:export-ydpi="200">
      <path
         d="M 0,0 H 2.236 V -0.525 H 0.602 V -1.382 H 2.15 V -1.888 H 0.602 V -2.841 H 2.321 V -3.375 H 0 Z"
         style="fill:#131112;fill-opacity:1;fill-rule:nonzero;stroke:none"
         id="path396"
         inkscape:connector-curvature="0" />
    </g>
    <g
       id="g398"
       transform="matrix(0.35277777,0,0,-0.35277777,103.37476,114.89977)"
       inkscape:export-xdpi="200"
       inkscape:export-ydpi="200">
      <path
         d="M 0,0 C -0.065,0.083 -0.155,0.152 -0.27,0.207 -0.386,0.263 -0.502,0.291 -0.62,0.291 -0.689,0.291 -0.76,0.282 -0.83,0.264 -0.9,0.247 -0.963,0.22 -1.02,0.184 -1.078,0.146 -1.125,0.099 -1.161,0.04 c -0.036,-0.059 -0.054,-0.129 -0.054,-0.212 0,-0.076 0.015,-0.141 0.047,-0.195 0.032,-0.054 0.075,-0.1 0.131,-0.138 0.056,-0.038 0.123,-0.072 0.202,-0.1 0.079,-0.029 0.168,-0.058 0.263,-0.086 0.107,-0.035 0.219,-0.075 0.336,-0.119 0.116,-0.045 0.221,-0.104 0.319,-0.176 0.097,-0.074 0.176,-0.165 0.238,-0.277 0.062,-0.111 0.093,-0.249 0.093,-0.414 0,-0.182 -0.034,-0.34 -0.1,-0.475 -0.067,-0.135 -0.155,-0.247 -0.267,-0.336 -0.112,-0.089 -0.241,-0.156 -0.391,-0.2 -0.149,-0.044 -0.306,-0.067 -0.471,-0.067 -0.22,0 -0.435,0.041 -0.643,0.122 -0.21,0.081 -0.382,0.2 -0.516,0.36 l 0.43,0.4 c 0.082,-0.114 0.192,-0.205 0.331,-0.272 0.137,-0.066 0.274,-0.1 0.407,-0.1 0.07,0 0.141,0.009 0.214,0.027 0.074,0.017 0.139,0.047 0.198,0.088 0.059,0.041 0.106,0.092 0.143,0.155 0.037,0.061 0.056,0.139 0.056,0.231 0,0.088 -0.022,0.162 -0.063,0.221 -0.042,0.059 -0.097,0.11 -0.166,0.153 -0.07,0.043 -0.153,0.08 -0.248,0.111 -0.096,0.032 -0.196,0.066 -0.3,0.101 -0.102,0.032 -0.204,0.07 -0.305,0.114 -0.102,0.044 -0.194,0.103 -0.275,0.176 -0.081,0.074 -0.147,0.163 -0.197,0.27 -0.052,0.106 -0.077,0.239 -0.077,0.398 0,0.171 0.036,0.319 0.107,0.443 0.072,0.124 0.165,0.227 0.282,0.307 0.116,0.081 0.248,0.141 0.395,0.181 0.147,0.04 0.298,0.06 0.45,0.06 0.172,0 0.346,-0.03 0.522,-0.09 C 0.107,0.64 0.26,0.549 0.39,0.429 Z"
         style="fill:#131112;fill-opacity:1;fill-rule:nonzero;stroke:none"
         id="path400"
         inkscape:connector-curvature="0" />
    </g>
  </g>
</svg>
