<?xml version="1.0" encoding="UTF-8" standalone="no"?>
<!-- Created with Inkscape (http://www.inkscape.org/) -->

<svg
   xmlns:dc="http://purl.org/dc/elements/1.1/"
   xmlns:cc="http://creativecommons.org/ns#"
   xmlns:rdf="http://www.w3.org/1999/02/22-rdf-syntax-ns#"
   xmlns:svg="http://www.w3.org/2000/svg"
   xmlns="http://www.w3.org/2000/svg"
   xmlns:sodipodi="http://sodipodi.sourceforge.net/DTD/sodipodi-0.dtd"
   xmlns:inkscape="http://www.inkscape.org/namespaces/inkscape"
   width="35.609035mm"
   height="27.114695mm"
   viewBox="0 0 35.609035 27.114695"
   version="1.1"
   id="svg795"
   inkscape:version="0.92.5 (2060ec1f9f, 2020-04-08)"
   sodipodi:docname="logo.svg">
  <defs
     id="defs789">
    <linearGradient
       x1="0"
       y1="0"
       x2="1"
       y2="0"
       gradientUnits="userSpaceOnUse"
       gradientTransform="matrix(6.8624744,0,0,-6.8624744,268.10715,256.89209)"
       spreadMethod="pad"
       id="linearGradient242">
      <stop
         style="stop-opacity:1;stop-color:#ef3638"
         offset="0"
         id="stop234" />
      <stop
         style="stop-opacity:1;stop-color:#ef3039"
         offset="0.288528"
         id="stop236" />
      <stop
         style="stop-opacity:1;stop-color:#ef294b"
         offset="0.61798"
         id="stop238" />
      <stop
         style="stop-opacity:1;stop-color:#e4204f"
         offset="1"
         id="stop240" />
    </linearGradient>
    <clipPath
       clipPathUnits="userSpaceOnUse"
       id="clipPath216">
      <path
         d="M 0,595 H 319 V 0 H 0 Z"
         id="path214"
         inkscape:connector-curvature="0" />
    </clipPath>
    <linearGradient
       x1="0"
       y1="0"
       x2="1"
       y2="0"
       gradientUnits="userSpaceOnUse"
       gradientTransform="matrix(6.8624744,0,0,-6.8624744,258.35519,256.89209)"
       spreadMethod="pad"
       id="linearGradient206">
      <stop
         style="stop-opacity:1;stop-color:#ef3638"
         offset="0"
         id="stop198" />
      <stop
         style="stop-opacity:1;stop-color:#ef3039"
         offset="0.288528"
         id="stop200" />
      <stop
         style="stop-opacity:1;stop-color:#ef294b"
         offset="0.61798"
         id="stop202" />
      <stop
         style="stop-opacity:1;stop-color:#e4204f"
         offset="1"
         id="stop204" />
    </linearGradient>
    <clipPath
       clipPathUnits="userSpaceOnUse"
       id="clipPath176">
      <path
         d="M 0,595 H 319 V 0 H 0 Z"
         id="path174"
         inkscape:connector-curvature="0" />
    </clipPath>
    <linearGradient
       x1="0"
       y1="0"
       x2="1"
       y2="0"
       gradientUnits="userSpaceOnUse"
       gradientTransform="matrix(100.93887,0,0,-100.93887,179.43294,242.18062)"
       spreadMethod="pad"
       id="linearGradient166">
      <stop
         style="stop-opacity:1;stop-color:#ef3638"
         offset="0"
         id="stop158" />
      <stop
         style="stop-opacity:1;stop-color:#ef3039"
         offset="0.288528"
         id="stop160" />
      <stop
         style="stop-opacity:1;stop-color:#ef294b"
         offset="0.61798"
         id="stop162" />
      <stop
         style="stop-opacity:1;stop-color:#e4204f"
         offset="1"
         id="stop164" />
    </linearGradient>
    <clipPath
       clipPathUnits="userSpaceOnUse"
       id="clipPath120">
      <path
         d="M 0,595 H 319 V 0 H 0 Z"
         id="path118"
         inkscape:connector-curvature="0" />
    </clipPath>
    <linearGradient
       x1="0"
       y1="0"
       x2="1"
       y2="0"
       gradientUnits="userSpaceOnUse"
       gradientTransform="matrix(0,-39.841549,-39.841549,0,229.90237,306.08475)"
       spreadMethod="pad"
       id="linearGradient110">
      <stop
         style="stop-opacity:1;stop-color:#ef3638"
         offset="0"
         id="stop102" />
      <stop
         style="stop-opacity:1;stop-color:#ef3039"
         offset="0.288528"
         id="stop104" />
      <stop
         style="stop-opacity:1;stop-color:#ef294b"
         offset="0.61798"
         id="stop106" />
      <stop
         style="stop-opacity:1;stop-color:#e4204f"
         offset="1"
         id="stop108" />
    </linearGradient>
  </defs>
  <sodipodi:namedview
     id="base"
     pagecolor="#ffffff"
     bordercolor="#666666"
     borderopacity="1.0"
     inkscape:pageopacity="0.0"
     inkscape:pageshadow="2"
     inkscape:zoom="2.8"
     inkscape:cx="68.284586"
     inkscape:cy="47.754302"
     inkscape:document-units="mm"
     inkscape:current-layer="layer1"
     showgrid="false"
     inkscape:window-width="1366"
     inkscape:window-height="705"
     inkscape:window-x="-8"
     inkscape:window-y="-8"
     inkscape:window-maximized="1" />
  <metadata
     id="metadata792">
    <rdf:RDF>
      <cc:Work
         rdf:about="">
        <dc:format>image/svg+xml</dc:format>
        <dc:type
           rdf:resource="http://purl.org/dc/dcmitype/StillImage" />
        <dc:title></dc:title>
      </cc:Work>
    </rdf:RDF>
  </metadata>
  <g
     inkscape:label="Camada 1"
     inkscape:groupmode="layer"
     id="layer1"
     transform="translate(-77.445483,-40.781936)">
    <g
       id="g90"
       transform="matrix(0.35277777,0,0,-0.35277777,14.145509,148.76192)">
      <g
         id="g92">
        <g
           id="g98">
          <g
             id="g100">
            <path
               d="m 214.815,306.085 c -2.67,0 -4.833,-2.164 -4.833,-4.833 v 0 -30.176 c 0,-2.669 2.163,-4.833 4.833,-4.833 v 0 h 3.224 c -0.035,7.078 1.431,14.492 3.668,20.655 v 0 c 3.049,8.4 7.965,17.026 20.029,17.36 v 0 l 2.291,-0.121 c 0.112,-0.265 1,-0.022 1.135,-0.271 v 0 c -9.574,-0.498 -14.208,-5.033 -17.518,-10.651 v 0 c 5.657,-0.045 11.786,-1.734 12.1,-4.85 v 0 c 0.389,-3.841 -5.759,-4.652 -10.329,-5.138 v 0 c 4.813,-1.022 10.22,-2.366 10.011,-6.319 v 0 c -0.073,-1.342 -1.162,-2.574 -2.19,-3.357 v 0 c -3.319,-2.521 -9.662,-3.369 -16.257,-3.14 v 0 c -0.411,-1.334 -0.745,-2.731 -1.032,-4.168 v 0 h 25.043 c 2.669,0 4.833,2.164 4.833,4.833 v 0 30.176 c 0,2.669 -2.164,4.833 -4.833,4.833 v 0 z m 16.439,-12.434 c -0.568,0.145 -1.014,0.747 -1.089,1.037 v 0 c -0.42,1.657 1.428,2.888 3.151,2.872 v 0 c 3.433,-0.037 1.581,-4.009 -1.277,-4.009 v 0 c -0.254,0 -0.517,0.031 -0.785,0.1 m -5.123,-10.039 c 4.358,-0.227 11.25,1.048 9.728,4.643 v 0 c -0.559,1.318 -2.718,1.893 -4.904,2.365 v 0 c -2.044,-1.979 -3.422,-4.504 -4.824,-7.008 m -4.93,-12.701 c 5.813,-0.08 11.943,0.799 13.659,3.924 v 0 c 2.424,4.406 -5.801,6.069 -10.158,6.221 v 0 c 0.22,-0.021 -2.675,-6.395 -3.501,-10.145"
               style="fill:url(#linearGradient110);stroke:none"
               id="path112"
               inkscape:connector-curvature="0" />
          </g>
        </g>
      </g>
    </g>
    <g
       id="g114"
       transform="matrix(0.35277777,0,0,-0.35277777,14.145509,148.76192)">
      <g
         id="g116"
         clip-path="url(#clipPath120)">
        <g
           id="g122"
           transform="translate(193.0015,250.8486)">
          <path
             d="M 0,0 1.734,9.705 H 1.683 L -3.738,0 H -5.201 L -7.155,9.705 H -7.189 L -8.906,0 h -1.989 l 2.126,12.033 h 3.263 l 1.631,-8.617 h 0.034 l 4.709,8.617 H 4.182 L 2.074,0 Z"
             style="fill:#3c3942;fill-opacity:1;fill-rule:nonzero;stroke:none"
             id="path124"
             inkscape:connector-curvature="0" />
        </g>
        <g
           id="g126"
           transform="translate(196.7236,250.8486)">
          <path
             d="M 0,0 2.125,12.033 H 9.706 L 9.382,10.197 H 3.842 L 3.297,7.087 H 8.583 L 8.26,5.319 H 2.992 L 2.379,1.87 H 8.397 L 8.073,0 Z"
             style="fill:#3c3942;fill-opacity:1;fill-rule:nonzero;stroke:none"
             id="path128"
             inkscape:connector-curvature="0" />
        </g>
        <g
           id="g130"
           transform="translate(212.6826,261.0459)">
          <path
             d="M 0,0 -1.801,-10.197 H -3.892 L -2.107,0 h -3.569 l 0.322,1.836 H 3.858 L 3.535,0 Z"
             style="fill:#3c3942;fill-opacity:1;fill-rule:nonzero;stroke:none"
             id="path132"
             inkscape:connector-curvature="0" />
        </g>
        <g
           id="g134"
           transform="translate(220.3652,252.3789)">
          <path
             d="M 0,0 C 0.759,0 1.43,0.152 2.015,0.458 2.598,0.764 3.09,1.172 3.493,1.683 3.895,2.191 4.201,2.77 4.411,3.415 4.62,4.062 4.726,4.724 4.726,5.404 4.726,5.892 4.646,6.355 4.486,6.798 4.329,7.239 4.097,7.622 3.79,7.945 3.484,8.268 3.104,8.525 2.651,8.718 2.198,8.911 1.677,9.007 1.088,9.007 0.362,9.007 -0.292,8.854 -0.875,8.548 -1.458,8.242 -1.954,7.834 -2.363,7.324 -2.771,6.814 -3.085,6.236 -3.306,5.591 -3.526,4.945 -3.637,4.282 -3.637,3.603 -3.637,3.104 -3.559,2.637 -3.399,2.2 -3.24,1.764 -3.008,1.385 -2.701,1.062 -2.396,0.739 -2.018,0.48 -1.564,0.288 -1.11,0.096 -0.59,0 0,0 m 1.19,10.809 c 0.861,0 1.64,-0.122 2.336,-0.366 C 4.224,10.199 4.821,9.854 5.319,9.406 5.818,8.959 6.204,8.412 6.476,7.767 6.747,7.12 6.883,6.396 6.883,5.591 6.883,4.571 6.711,3.608 6.365,2.701 6.02,1.795 5.541,1.008 4.929,0.34 4.317,-0.329 3.592,-0.858 2.753,-1.25 1.915,-1.641 0.997,-1.836 0,-1.836 c -0.884,0 -1.683,0.118 -2.396,0.357 -0.714,0.238 -1.324,0.583 -1.828,1.037 -0.505,0.453 -0.892,1.003 -1.164,1.648 -0.271,0.647 -0.408,1.371 -0.408,2.176 0,1.019 0.179,1.982 0.535,2.889 0.358,0.906 0.847,1.693 1.471,2.362 0.623,0.669 1.359,1.198 2.209,1.59 0.851,0.39 1.773,0.586 2.771,0.586"
             style="fill:#3c3942;fill-opacity:1;fill-rule:nonzero;stroke:none"
             id="path136"
             inkscape:connector-curvature="0" />
        </g>
        <g
           id="g138"
           transform="translate(229.6445,252.6836)">
          <path
             d="m 0,0 h 2.193 c 0.838,0 1.575,0.137 2.21,0.407 0.634,0.273 1.163,0.637 1.589,1.094 0.424,0.458 0.744,0.978 0.959,1.561 0.216,0.583 0.324,1.19 0.324,1.824 0,0.474 -0.08,0.926 -0.238,1.356 -0.159,0.43 -0.4,0.803 -0.722,1.12 C 5.992,7.679 5.584,7.931 5.091,8.117 4.599,8.303 4.012,8.396 3.332,8.396 H 1.479 Z m -0.271,10.198 h 4.113 c 0.679,0 1.353,-0.094 2.022,-0.28 C 6.533,9.73 7.133,9.437 7.666,9.034 8.198,8.632 8.628,8.11 8.957,7.471 9.286,6.83 9.45,6.062 9.45,5.167 9.45,4.113 9.266,3.156 8.898,2.295 8.529,1.434 8.017,0.697 7.359,0.085 6.703,-0.526 5.926,-0.999 5.032,-1.333 4.137,-1.668 3.162,-1.835 2.107,-1.835 h -4.503 z"
             style="fill:#3c3942;fill-opacity:1;fill-rule:nonzero;stroke:none"
             id="path140"
             inkscape:connector-curvature="0" />
        </g>
        <g
           id="g142"
           transform="translate(245.2812,252.3789)">
          <path
             d="M 0,0 C 0.759,0 1.43,0.152 2.014,0.458 2.597,0.764 3.089,1.172 3.492,1.683 3.894,2.191 4.2,2.77 4.41,3.415 4.619,4.062 4.725,4.724 4.725,5.404 4.725,5.892 4.645,6.355 4.485,6.798 4.328,7.239 4.096,7.622 3.789,7.945 3.483,8.268 3.104,8.525 2.65,8.718 2.197,8.911 1.676,9.007 1.087,9.007 0.361,9.007 -0.293,8.854 -0.876,8.548 -1.459,8.242 -1.955,7.834 -2.363,7.324 -2.771,6.814 -3.086,6.236 -3.307,5.591 -3.526,4.945 -3.638,4.282 -3.638,3.603 -3.638,3.104 -3.559,2.637 -3.4,2.2 -3.241,1.764 -3.009,1.385 -2.702,1.062 -2.396,0.739 -2.018,0.48 -1.564,0.288 -1.111,0.096 -0.591,0 0,0 m 1.189,10.809 c 0.862,0 1.64,-0.122 2.337,-0.366 C 4.223,10.199 4.82,9.854 5.319,9.406 5.818,8.959 6.203,8.412 6.475,7.767 6.747,7.12 6.882,6.396 6.882,5.591 6.882,4.571 6.71,3.608 6.364,2.701 6.019,1.795 5.54,1.008 4.928,0.34 4.317,-0.329 3.592,-0.858 2.753,-1.25 1.914,-1.641 0.996,-1.836 0,-1.836 c -0.885,0 -1.684,0.118 -2.396,0.357 -0.715,0.238 -1.324,0.583 -1.829,1.037 -0.504,0.453 -0.891,1.003 -1.164,1.648 -0.271,0.647 -0.408,1.371 -0.408,2.176 0,1.019 0.18,1.982 0.536,2.889 0.357,0.906 0.847,1.693 1.47,2.362 0.623,0.669 1.359,1.198 2.21,1.59 0.85,0.39 1.772,0.586 2.77,0.586"
             style="fill:#3c3942;fill-opacity:1;fill-rule:nonzero;stroke:none"
             id="path144"
             inkscape:connector-curvature="0" />
        </g>
      </g>
    </g>
    <g
       id="g146"
       transform="matrix(0.35277777,0,0,-0.35277777,14.145509,148.76192)">
      <g
         id="g148">
        <g
           id="g154">
          <g
             id="g156">
            <path
               d="m 222.422,248.575 c -0.96,-0.429 -1.796,-1.016 -2.506,-1.764 v 0 c -0.712,-0.748 -1.265,-1.626 -1.66,-2.631 v 0 c -0.397,-1.006 -0.595,-2.082 -0.595,-3.225 v 0 c 0,-0.894 0.153,-1.698 0.463,-2.415 v 0 c 0.308,-0.716 0.738,-1.326 1.292,-1.829 v 0 c 0.553,-0.503 1.222,-0.889 2.009,-1.159 v 0 c 0.785,-0.271 1.656,-0.406 2.611,-0.406 v 0 c 0.905,0 1.782,0.106 2.631,0.32 v 0 c 0.849,0.213 1.613,0.497 2.292,0.85 v 0 l 1.226,7.053 h -5.488 l -0.471,-2.584 h 2.601 l -0.434,-2.508 c -0.276,-0.138 -0.575,-0.236 -0.895,-0.293 v 0 c -0.321,-0.056 -0.67,-0.091 -1.047,-0.103 v 0 c -0.566,0 -1.069,0.084 -1.508,0.254 v 0 c -0.441,0.17 -0.812,0.409 -1.113,0.717 v 0 c -0.303,0.309 -0.529,0.672 -0.678,1.094 v 0 c -0.152,0.421 -0.227,0.876 -0.227,1.366 v 0 c 0,0.693 0.115,1.35 0.348,1.972 v 0 c 0.233,0.622 0.554,1.169 0.962,1.641 v 0 c 0.409,0.472 0.893,0.845 1.453,1.121 v 0 c 0.558,0.277 1.164,0.416 1.819,0.416 v 0 c 0.667,0 1.216,-0.123 1.65,-0.369 v 0 c 0.435,-0.244 0.777,-0.549 1.028,-0.913 v 0 l 2.282,2.055 c -0.49,0.654 -1.165,1.147 -2.026,1.481 v 0 c -0.863,0.333 -1.821,0.499 -2.878,0.499 v 0 c -1.132,0 -2.179,-0.213 -3.141,-0.64 m 48.322,-0.009 c -0.962,-0.423 -1.796,-1 -2.5,-1.736 v 0 c -0.704,-0.737 -1.251,-1.598 -1.641,-2.583 v 0 c -0.195,-0.494 -0.341,-1.005 -0.438,-1.533 v 0 c 0.01,0.173 0.023,0.345 0.023,0.523 v 0 c 0,1.005 -0.188,1.864 -0.565,2.575 v 0 c -0.378,0.71 -0.865,1.29 -1.462,1.744 v 0 c -0.597,0.452 -1.269,0.782 -2.017,0.99 v 0 c -0.75,0.207 -1.5,0.311 -2.255,0.311 v 0 h -4.94 l -2.213,-12.53 -2.37,12.53 h -3.057 l -7.314,-11.482 -1.832,3.881 c 1.005,0.252 1.804,0.721 2.394,1.406 v 0 c 0.593,0.684 0.887,1.567 0.887,2.649 v 0 c 0,1.12 -0.411,1.99 -1.235,2.613 v 0 c -0.824,0.622 -1.971,0.933 -3.441,0.933 v 0 h -4.565 l -2.357,-13.353 h 3.055 l 0.906,5.375 h 1.282 l 2.244,-5.375 h 5.054 l 1.603,2.659 h 5.15 l 0.452,-2.659 h 8.45 c 1.169,0 2.25,0.183 3.243,0.547 v 0 c 0.993,0.365 1.855,0.884 2.584,1.556 v 0 c 0.728,0.672 1.299,1.487 1.707,2.442 v 0 c 0.211,0.492 0.364,1.014 0.467,1.563 v 0 c -0.011,-0.181 -0.025,-0.36 -0.025,-0.543 v 0 c 0,-0.894 0.149,-1.706 0.444,-2.434 v 0 c 0.296,-0.73 0.724,-1.352 1.282,-1.867 v 0 c 0.559,-0.516 1.243,-0.912 2.047,-1.188 v 0 c 0.804,-0.278 1.716,-0.415 2.735,-0.415 v 0 c 1.157,0 2.215,0.21 3.177,0.631 v 0 c 0.962,0.422 1.789,1 2.482,1.736 v 0 c 0.69,0.736 1.228,1.596 1.611,2.583 v 0 c 0.384,0.988 0.576,2.047 0.576,3.178 v 0 c 0,0.892 -0.148,1.704 -0.443,2.434 v 0 c -0.296,0.728 -0.72,1.351 -1.274,1.867 v 0 c -0.553,0.515 -1.228,0.911 -2.027,1.188 v 0 c -0.799,0.277 -1.701,0.415 -2.707,0.415 v 0 c -1.156,0 -2.215,-0.211 -3.177,-0.631 m 0.489,-10.308 c -0.42,0.175 -0.776,0.415 -1.065,0.716 v 0 c -0.29,0.303 -0.51,0.658 -0.659,1.066 v 0 c -0.152,0.409 -0.227,0.845 -0.227,1.31 v 0 c 0,0.642 0.102,1.264 0.311,1.868 v 0 c 0.208,0.604 0.501,1.14 0.887,1.612 v 0 c 0.382,0.472 0.848,0.852 1.395,1.142 v 0 c 0.547,0.289 1.16,0.434 1.839,0.434 v 0 c 0.541,0 1.024,-0.089 1.452,-0.264 v 0 c 0.428,-0.177 0.783,-0.415 1.066,-0.717 v 0 c 0.282,-0.302 0.499,-0.657 0.649,-1.067 v 0 c 0.152,-0.408 0.227,-0.844 0.227,-1.31 v 0 c 0,-0.642 -0.101,-1.267 -0.301,-1.876 v 0 c -0.202,-0.61 -0.491,-1.152 -0.869,-1.623 v 0 c -0.375,-0.471 -0.838,-0.847 -1.384,-1.131 v 0 c -0.548,-0.283 -1.167,-0.424 -1.858,-0.424 v 0 c -0.554,0 -1.041,0.088 -1.463,0.264 m -36.447,8.034 h 1.34 c 0.653,0 1.176,-0.101 1.566,-0.3 v 0 c 0.388,-0.2 0.585,-0.575 0.585,-1.125 v 0 c 0,-0.601 -0.234,-1.037 -0.699,-1.313 v 0 c -0.466,-0.274 -1.12,-0.412 -1.962,-0.412 v 0 h -1.395 z m 22.765,-0.093 h 1.716 c 0.63,0 1.172,-0.09 1.631,-0.265 v 0 c 0.459,-0.176 0.84,-0.416 1.142,-0.717 v 0 c 0.302,-0.302 0.524,-0.657 0.669,-1.066 v 0 c 0.144,-0.408 0.217,-0.839 0.217,-1.291 v 0 c 0,-0.592 -0.1,-1.167 -0.301,-1.727 v 0 c -0.201,-0.559 -0.5,-1.056 -0.897,-1.489 v 0 c -0.395,-0.434 -0.892,-0.779 -1.489,-1.038 v 0 c -0.597,-0.257 -1.286,-0.386 -2.066,-0.386 v 0 h -2.018 z m -9.431,-0.774 0.698,-4.734 h -3.488 z m -38.097,3.432 -2.358,-13.353 h 9.091 l 0.471,2.697 h -6.073 l 0.492,2.868 h 5.28 l 0.452,2.526 h -5.28 l 0.451,2.584 h 5.545 l 0.473,2.678 z m -11.146,0 -0.49,-2.697 h 3.733 l -1.865,-10.656 h 3.13 l 1.885,10.656 h 3.66 l 0.471,2.697 z m -3.924,0 -1.508,-8.808 h -0.038 l -3.658,8.808 h -3.526 l -2.358,-13.353 h 3.093 l 1.508,8.864 h 0.057 l 3.677,-8.864 h 3.491 l 2.357,13.353 z m -13.163,0 -2.357,-13.353 h 3.149 l 2.358,13.353 z"
               style="fill:url(#linearGradient166);stroke:none"
               id="path168"
               inkscape:connector-curvature="0" />
          </g>
        </g>
      </g>
    </g>
    <g
       id="g170"
       transform="matrix(0.35277777,0,0,-0.35277777,14.145509,148.76192)">
      <g
         id="g172"
         clip-path="url(#clipPath176)">
        <g
           id="g178"
           transform="translate(205.272,265.4092)">
          <path
             d="M 0,0 -0.567,-1.542 H -4.538 Z"
             style="fill:#3c3942;fill-opacity:1;fill-rule:nonzero;stroke:none"
             id="path180"
             inkscape:connector-curvature="0" />
        </g>
        <g
           id="g182"
           transform="translate(253.4795,262.3779)">
          <path
             d="m 0,0 h 3.792 l 3.07,-5.12 -3.431,-5.852 H 0 l 3.431,5.486 z"
             style="fill:#3c3942;fill-opacity:1;fill-rule:nonzero;stroke:none"
             id="path184"
             inkscape:connector-curvature="0" />
        </g>
      </g>
    </g>
    <g
       id="g186"
       transform="matrix(0.35277777,0,0,-0.35277777,14.145509,148.76192)">
      <g
         id="g188">
        <g
           id="g194">
          <g
             id="g196">
            <path
               d="m 258.356,262.378 3.43,-5.487 -3.43,-5.485 h 3.43 l 3.431,5.852 -3.07,5.12 z"
               style="fill:url(#linearGradient206);stroke:none"
               id="path208"
               inkscape:connector-curvature="0" />
          </g>
        </g>
      </g>
    </g>
    <g
       id="g210"
       transform="matrix(0.35277777,0,0,-0.35277777,14.145509,148.76192)">
      <g
         id="g212"
         clip-path="url(#clipPath216)">
        <g
           id="g218"
           transform="translate(263.2314,262.3779)">
          <path
             d="m 0,0 h 3.792 l 3.07,-5.12 -3.431,-5.852 H 0 l 3.431,5.486 z"
             style="fill:#3c3942;fill-opacity:1;fill-rule:nonzero;stroke:none"
             id="path220"
             inkscape:connector-curvature="0" />
        </g>
      </g>
    </g>
    <g
       id="g222"
       transform="matrix(0.35277777,0,0,-0.35277777,14.145509,148.76192)">
      <g
         id="g224">
        <g
           id="g230">
          <g
             id="g232">
            <path
               d="m 268.107,262.378 3.431,-5.487 -3.431,-5.485 h 3.431 l 3.432,5.852 -3.071,5.12 z"
               style="fill:url(#linearGradient242);stroke:none"
               id="path244"
               inkscape:connector-curvature="0" />
          </g>
        </g>
      </g>
    </g>
    <g
       id="g254"
       transform="matrix(0.35277777,0,0,-0.35277777,110.41012,56.266606)">
      <path
         d="m 0,0 h 3.792 l 3.07,-5.12 -3.431,-5.852 H 0 l 3.431,5.486 z"
         style="fill:#3c3942;fill-opacity:1;fill-rule:nonzero;stroke:none"
         id="path256"
         inkscape:connector-curvature="0" />
    </g>
    <g
       id="g258"
       transform="matrix(0.35277777,0,0,-0.35277777,77.724936,67.722921)">
      <path
         d="M 0,0 H 0.448 C 0.512,0 0.582,0.005 0.655,0.015 0.729,0.023 0.797,0.043 0.86,0.072 0.922,0.101 0.974,0.144 1.014,0.198 1.056,0.254 1.076,0.329 1.076,0.421 1.076,0.57 1.026,0.673 0.925,0.731 0.825,0.79 0.673,0.818 0.469,0.818 H 0 Z m 0,1.248 h 0.445 c 0.166,0 0.294,0.033 0.381,0.099 0.088,0.066 0.131,0.16 0.131,0.282 0,0.127 -0.045,0.218 -0.134,0.27 -0.091,0.053 -0.232,0.08 -0.422,0.08 H 0 Z M -0.501,2.393 H 0.596 C 0.701,2.393 0.806,2.38 0.91,2.354 1.013,2.329 1.104,2.288 1.186,2.231 1.267,2.174 1.332,2.101 1.382,2.011 1.433,1.921 1.458,1.812 1.458,1.685 1.458,1.525 1.413,1.395 1.323,1.291 1.232,1.188 1.114,1.114 0.969,1.068 V 1.062 C 1.146,1.037 1.292,0.969 1.406,0.854 1.52,0.74 1.577,0.588 1.577,0.397 1.577,0.244 1.546,0.115 1.485,0.011 1.425,-0.095 1.345,-0.179 1.246,-0.242 1.146,-0.306 1.032,-0.352 0.903,-0.379 0.775,-0.407 0.644,-0.421 0.512,-0.421 h -1.013 z"
         style="fill:#3c3942;fill-opacity:1;fill-rule:nonzero;stroke:none"
         id="path260"
         inkscape:connector-curvature="0" />
    </g>
    <g
       id="g262"
       transform="matrix(0.35277777,0,0,-0.35277777,80.934226,67.30675)">
      <path
         d="m 0,0 c 0.072,0 0.143,0.006 0.215,0.017 0.071,0.009 0.135,0.03 0.193,0.059 0.057,0.028 0.103,0.07 0.14,0.125 0.038,0.054 0.056,0.123 0.056,0.208 0,0.077 -0.017,0.141 -0.051,0.19 C 0.519,0.647 0.475,0.687 0.422,0.716 0.369,0.745 0.309,0.765 0.241,0.775 0.173,0.785 0.108,0.791 0.044,0.791 H -0.409 V 0 Z M -0.91,1.213 H 0.068 C 0.201,1.213 0.329,1.198 0.454,1.171 0.578,1.143 0.688,1.098 0.785,1.033 0.882,0.97 0.959,0.887 1.018,0.783 1.076,0.68 1.104,0.555 1.104,0.405 1.104,0.202 1.047,0.035 0.932,-0.093 0.817,-0.222 0.66,-0.308 0.461,-0.354 L 1.212,-1.601 H 0.608 l -0.651,1.192 H -0.409 V -1.601 H -0.91 Z"
         style="fill:#3c3942;fill-opacity:1;fill-rule:nonzero;stroke:none"
         id="path264"
         inkscape:connector-curvature="0" />
    </g>
    <g
       id="g266"
       transform="matrix(0.35277777,0,0,-0.35277777,84.443906,67.506915)">
      <path
         d="m 0,0 c 0,-0.17 -0.03,-0.322 -0.088,-0.459 -0.058,-0.137 -0.138,-0.253 -0.238,-0.348 -0.1,-0.095 -0.22,-0.169 -0.358,-0.22 -0.138,-0.052 -0.287,-0.077 -0.448,-0.077 -0.162,0 -0.312,0.025 -0.45,0.077 -0.137,0.051 -0.257,0.125 -0.358,0.22 -0.103,0.095 -0.183,0.211 -0.24,0.348 C -2.236,-0.322 -2.265,-0.17 -2.265,0 v 1.78 h 0.501 V 0.02 c 0,-0.082 0.011,-0.164 0.032,-0.245 0.021,-0.081 0.056,-0.153 0.105,-0.216 0.049,-0.064 0.114,-0.116 0.194,-0.155 0.081,-0.04 0.182,-0.06 0.301,-0.06 0.119,0 0.219,0.02 0.299,0.06 0.081,0.039 0.146,0.091 0.195,0.155 0.049,0.063 0.084,0.135 0.105,0.216 0.022,0.081 0.032,0.163 0.032,0.245 V 1.78 H 0 Z"
         style="fill:#3c3942;fill-opacity:1;fill-rule:nonzero;stroke:none"
         id="path268"
         inkscape:connector-curvature="0" />
    </g>
    <g
       id="g270"
       transform="matrix(0.35277777,0,0,-0.35277777,86.812068,66.878866)">
      <path
         d="M 0,0 H 0.664 L 1.971,-2.106 H 1.979 V 0 h 0.5 V -2.813 H 1.844 L 0.509,-0.641 H 0.501 V -2.813 H 0 Z"
         style="fill:#3c3942;fill-opacity:1;fill-rule:nonzero;stroke:none"
         id="path272"
         inkscape:connector-curvature="0" />
    </g>
    <g
       id="g274"
       transform="matrix(0.35277777,0,0,-0.35277777,90.599103,67.49277)">
      <path
         d="M 0,0 -0.433,1.144 -0.873,0 Z m -0.636,1.74 h 0.434 L 1.01,-1.073 H 0.437 L 0.176,-0.43 h -1.22 l -0.254,-0.643 h -0.561 z"
         style="fill:#3c3942;fill-opacity:1;fill-rule:nonzero;stroke:none"
         id="path276"
         inkscape:connector-curvature="0" />
    </g>
    <g
       id="g278"
       transform="matrix(0.35277777,0,0,-0.35277777,95.871825,67.722921)">
      <path
         d="m 0,0 h 0.448 c 0.064,0 0.133,0.005 0.207,0.015 0.074,0.008 0.142,0.028 0.204,0.057 0.063,0.029 0.115,0.072 0.155,0.126 0.042,0.056 0.061,0.131 0.061,0.223 0,0.149 -0.049,0.252 -0.15,0.31 C 0.824,0.79 0.673,0.818 0.469,0.818 H 0 Z m 0,1.248 h 0.444 c 0.166,0 0.294,0.033 0.381,0.099 0.089,0.066 0.132,0.16 0.132,0.282 0,0.127 -0.046,0.218 -0.135,0.27 C 0.732,1.952 0.591,1.979 0.4,1.979 H 0 Z M -0.502,2.393 H 0.596 C 0.701,2.393 0.806,2.38 0.909,2.354 1.013,2.329 1.104,2.288 1.186,2.231 1.267,2.174 1.331,2.101 1.382,2.011 1.433,1.921 1.458,1.812 1.458,1.685 1.458,1.525 1.413,1.395 1.322,1.291 1.232,1.188 1.114,1.114 0.969,1.068 V 1.062 C 1.146,1.037 1.291,0.969 1.406,0.854 1.52,0.74 1.577,0.588 1.577,0.397 1.577,0.244 1.546,0.115 1.485,0.011 1.425,-0.095 1.345,-0.179 1.245,-0.242 1.146,-0.306 1.031,-0.352 0.902,-0.379 0.775,-0.407 0.644,-0.421 0.512,-0.421 h -1.014 z"
         style="fill:#3c3942;fill-opacity:1;fill-rule:nonzero;stroke:none"
         id="path280"
         inkscape:connector-curvature="0" />
    </g>
    <g
       id="g282"
       transform="matrix(0.35277777,0,0,-0.35277777,98.904514,67.372544)">
      <path
         d="m 0,0 c 0,-0.15 0.023,-0.289 0.069,-0.415 0.047,-0.126 0.113,-0.234 0.199,-0.328 0.086,-0.092 0.188,-0.164 0.306,-0.216 0.117,-0.052 0.249,-0.078 0.391,-0.078 0.143,0 0.274,0.026 0.394,0.078 0.12,0.052 0.222,0.124 0.308,0.216 0.086,0.094 0.151,0.202 0.198,0.328 C 1.912,-0.289 1.936,-0.15 1.936,0 1.936,0.146 1.912,0.281 1.865,0.405 1.818,0.53 1.754,0.639 1.669,0.731 1.584,0.824 1.481,0.896 1.362,0.95 1.244,1.003 1.111,1.029 0.965,1.029 0.819,1.029 0.687,1.003 0.57,0.95 0.452,0.896 0.352,0.824 0.267,0.731 0.182,0.639 0.116,0.53 0.069,0.405 0.023,0.281 0,0.146 0,0 m -0.544,0 c 0,0.226 0.037,0.429 0.113,0.61 0.076,0.182 0.18,0.335 0.314,0.463 C 0.017,1.2 0.176,1.298 0.359,1.367 0.543,1.436 0.745,1.471 0.962,1.471 1.181,1.471 1.384,1.436 1.569,1.367 1.755,1.298 1.915,1.2 2.05,1.073 2.186,0.945 2.29,0.792 2.366,0.61 2.44,0.429 2.479,0.226 2.479,0 2.479,-0.22 2.44,-0.42 2.366,-0.602 2.29,-0.783 2.186,-0.939 2.05,-1.07 1.915,-1.201 1.755,-1.304 1.569,-1.376 1.384,-1.449 1.181,-1.485 0.962,-1.485 c -0.217,0 -0.419,0.036 -0.603,0.109 -0.183,0.072 -0.342,0.175 -0.476,0.306 -0.134,0.131 -0.238,0.287 -0.314,0.468 C -0.507,-0.42 -0.544,-0.22 -0.544,0"
         style="fill:#3c3942;fill-opacity:1;fill-rule:nonzero;stroke:none"
         id="path284"
         inkscape:connector-curvature="0" />
    </g>
    <g
       id="g286"
       transform="matrix(0.35277777,0,0,-0.35277777,102.42954,67.30675)">
      <path
         d="m 0,0 c 0.071,0 0.143,0.006 0.215,0.017 0.071,0.009 0.135,0.03 0.192,0.059 0.058,0.028 0.104,0.07 0.141,0.125 0.038,0.054 0.056,0.123 0.056,0.208 0,0.077 -0.017,0.141 -0.051,0.19 C 0.519,0.647 0.475,0.687 0.422,0.716 0.369,0.745 0.308,0.765 0.241,0.775 0.173,0.785 0.107,0.791 0.044,0.791 H -0.409 V 0 Z M -0.91,1.213 H 0.068 C 0.2,1.213 0.329,1.198 0.453,1.171 0.578,1.143 0.688,1.098 0.785,1.033 0.882,0.97 0.959,0.887 1.018,0.783 1.076,0.68 1.104,0.555 1.104,0.405 1.104,0.202 1.047,0.035 0.932,-0.093 0.817,-0.222 0.659,-0.308 0.461,-0.354 L 1.212,-1.601 H 0.607 l -0.65,1.192 H -0.409 V -1.601 H -0.91 Z"
         style="fill:#3c3942;fill-opacity:1;fill-rule:nonzero;stroke:none"
         id="path288"
         inkscape:connector-curvature="0" />
    </g>
    <g
       id="g290"
       transform="matrix(0.35277777,0,0,-0.35277777,106.01761,67.819372)">
      <path
         d="m 0,0 c -0.144,-0.069 -0.301,-0.123 -0.472,-0.161 -0.171,-0.038 -0.366,-0.058 -0.589,-0.058 -0.228,0 -0.436,0.036 -0.625,0.11 -0.186,0.072 -0.348,0.174 -0.484,0.305 -0.134,0.131 -0.24,0.287 -0.314,0.469 -0.077,0.182 -0.115,0.382 -0.115,0.602 0,0.225 0.039,0.428 0.118,0.61 0.078,0.182 0.185,0.335 0.321,0.463 0.137,0.127 0.298,0.224 0.483,0.294 0.186,0.068 0.387,0.103 0.605,0.103 0.224,0 0.429,-0.032 0.617,-0.097 0.186,-0.066 0.337,-0.151 0.45,-0.256 L -0.351,2.01 c -0.071,0.08 -0.17,0.146 -0.298,0.202 -0.129,0.056 -0.268,0.084 -0.42,0.084 -0.148,0 -0.283,-0.026 -0.404,-0.079 C -1.593,2.163 -1.695,2.091 -1.78,1.998 -1.864,1.905 -1.931,1.797 -1.977,1.672 -2.023,1.548 -2.046,1.413 -2.046,1.267 c 0,-0.151 0.023,-0.289 0.069,-0.415 0.046,-0.126 0.113,-0.235 0.2,-0.329 0.086,-0.091 0.19,-0.164 0.313,-0.215 0.122,-0.052 0.263,-0.079 0.419,-0.079 0.215,0 0.4,0.034 0.561,0.1 V 1.044 H -1.077 V 1.458 H 0 Z"
         style="fill:#3c3942;fill-opacity:1;fill-rule:nonzero;stroke:none"
         id="path292"
         inkscape:connector-curvature="0" />
    </g>
    <g
       id="g294"
       transform="matrix(0.35277777,0,0,-0.35277777,108.3899,66.878866)">
      <path
         d="M 0,0 H 1.864 V -0.437 H 0.502 v -0.715 h 1.29 V -1.574 H 0.502 V -2.368 H 1.936 V -2.813 H 0 Z"
         style="fill:#3c3942;fill-opacity:1;fill-rule:nonzero;stroke:none"
         id="path296"
         inkscape:connector-curvature="0" />
    </g>
    <g
       id="g298"
       transform="matrix(0.35277777,0,0,-0.35277777,111.90942,67.086617)">
      <path
         d="M 0,0 C -0.054,0.069 -0.129,0.127 -0.225,0.173 -0.321,0.22 -0.419,0.242 -0.517,0.242 -0.575,0.242 -0.633,0.235 -0.691,0.221 -0.75,0.206 -0.803,0.184 -0.851,0.153 -0.898,0.122 -0.937,0.083 -0.968,0.034 c -0.03,-0.05 -0.046,-0.108 -0.046,-0.177 0,-0.063 0.014,-0.118 0.04,-0.163 0.027,-0.045 0.063,-0.083 0.11,-0.115 0.046,-0.031 0.102,-0.059 0.168,-0.083 0.066,-0.024 0.14,-0.048 0.219,-0.072 0.089,-0.028 0.183,-0.062 0.28,-0.099 0.096,-0.037 0.185,-0.087 0.266,-0.147 0.08,-0.061 0.147,-0.138 0.199,-0.231 0.051,-0.093 0.077,-0.208 0.077,-0.344 0,-0.153 -0.028,-0.284 -0.083,-0.396 -0.056,-0.113 -0.13,-0.206 -0.222,-0.28 -0.094,-0.075 -0.202,-0.13 -0.326,-0.167 -0.125,-0.037 -0.256,-0.056 -0.394,-0.056 -0.182,0 -0.362,0.033 -0.536,0.102 -0.175,0.067 -0.318,0.167 -0.43,0.299 l 0.359,0.334 c 0.068,-0.095 0.16,-0.17 0.276,-0.226 0.115,-0.056 0.228,-0.084 0.339,-0.084 0.059,0 0.118,0.007 0.179,0.022 0.061,0.014 0.115,0.039 0.165,0.074 0.049,0.034 0.088,0.077 0.119,0.129 0.03,0.051 0.046,0.116 0.046,0.193 0,0.073 -0.018,0.135 -0.052,0.183 -0.035,0.05 -0.081,0.092 -0.139,0.128 -0.058,0.036 -0.127,0.067 -0.207,0.093 -0.079,0.027 -0.163,0.055 -0.25,0.084 -0.085,0.027 -0.169,0.059 -0.254,0.095 -0.084,0.037 -0.161,0.086 -0.229,0.147 -0.067,0.061 -0.122,0.136 -0.164,0.225 -0.043,0.089 -0.064,0.198 -0.064,0.331 0,0.144 0.03,0.267 0.089,0.37 0.06,0.104 0.138,0.189 0.235,0.256 0.096,0.067 0.207,0.118 0.329,0.15 0.124,0.034 0.249,0.051 0.376,0.051 0.142,0 0.288,-0.025 0.434,-0.075 C 0.089,0.534 0.217,0.458 0.325,0.357 Z"
         style="fill:#3c3942;fill-opacity:1;fill-rule:nonzero;stroke:none"
         id="path300"
         inkscape:connector-curvature="0" />
    </g>
  </g>
</svg>
