<?xml version="1.0" encoding="UTF-8" standalone="no"?>
<!-- Created with Inkscape (http://www.inkscape.org/) -->

<svg
   xmlns:dc="http://purl.org/dc/elements/1.1/"
   xmlns:cc="http://creativecommons.org/ns#"
   xmlns:rdf="http://www.w3.org/1999/02/22-rdf-syntax-ns#"
   xmlns:svg="http://www.w3.org/2000/svg"
   xmlns="http://www.w3.org/2000/svg"
   xmlns:sodipodi="http://sodipodi.sourceforge.net/DTD/sodipodi-0.dtd"
   xmlns:inkscape="http://www.inkscape.org/namespaces/inkscape"
   width="16.878937mm"
   height="28.512911mm"
   viewBox="0 0 16.878937 28.512911"
   version="1.1"
   id="svg1325"
   inkscape:version="0.92.5 (2060ec1f9f, 2020-04-08)"
   sodipodi:docname="logoB.svg">
  <defs
     id="defs1319" />
  <sodipodi:namedview
     id="base"
     pagecolor="#ffffff"
     bordercolor="#666666"
     borderopacity="1.0"
     inkscape:pageopacity="0.0"
     inkscape:pageshadow="2"
     inkscape:zoom="3.959798"
     inkscape:cx="73.433158"
     inkscape:cy="50.640215"
     inkscape:document-units="mm"
     inkscape:current-layer="layer1"
     showgrid="false"
     inkscape:window-width="1366"
     inkscape:window-height="705"
     inkscape:window-x="-8"
     inkscape:window-y="-8"
     inkscape:window-maximized="1" />
  <metadata
     id="metadata1322">
    <rdf:RDF>
      <cc:Work
         rdf:about="">
        <dc:format>image/svg+xml</dc:format>
        <dc:type
           rdf:resource="http://purl.org/dc/dcmitype/StillImage" />
        <dc:title></dc:title>
      </cc:Work>
    </rdf:RDF>
  </metadata>
  <g
     inkscape:label="Camada 1"
     inkscape:groupmode="layer"
     id="layer1"
     transform="translate(-62.620055,-65.785211)">
    <g
       id="g62"
       transform="matrix(0.35277777,0,0,-0.35277777,72.129464,69.952222)">
      <path
         d="m 0,0 c -3.038,0.029 -6.299,-2.141 -5.557,-5.064 0.132,-0.51 0.92,-1.574 1.92,-1.828 C 2.132,-8.372 6.594,-0.071 0,0 m 2.724,-40.074 c -3.027,-5.51 -13.957,-7.584 -24.21,-7.443 1.458,6.613 6.683,18.377 6.295,18.413 7.683,-0.267 22.189,-3.201 17.915,-10.97 m -6.888,27.836 c 3.853,-0.831 7.663,-1.846 8.647,-4.17 2.685,-6.339 -9.468,-8.588 -17.155,-8.189 2.472,4.418 4.904,8.868 8.508,12.359 M -6.88,-25.274 c 8.058,0.856 18.902,2.287 18.214,9.059 -0.553,5.497 -11.362,8.474 -21.335,8.554 5.834,9.908 14.007,17.906 30.891,18.782 -0.24,0.438 -1.805,0.011 -2.002,0.478 l -4.042,0.213 c -21.272,-0.589 -29.942,-15.8 -35.318,-30.613 -5.439,-14.986 -8.323,-34.176 -5.193,-50.211 0.917,7.359 1.915,14.655 3.907,21.137 11.632,-0.405 22.817,1.089 28.668,5.537 1.815,1.381 3.736,3.553 3.863,5.92 0.369,6.972 -9.166,9.341 -17.653,11.144"
         style="fill:#575860;fill-opacity:1;fill-rule:nonzero;stroke:none"
         id="path64"
         inkscape:connector-curvature="0" />
    </g>
  </g>
</svg>
